<svg width="122" height="142" viewBox="0 0 122 142" fill="none" xmlns="http://www.w3.org/2000/svg">
<g filter="url(#filter0_d_348_1054)">
<path d="M32.4715 58.0791L22.724 62.1032L19.8149 12.9483L31.537 8.10899L64.1298 45.0095L54.3823 49.0336L29.9028 20.2908L29.5667 20.4295L32.4715 58.0791ZM24.8808 41.4196L47.9051 31.9144L50.8364 39.0149L27.8122 48.5201L24.8808 41.4196Z" fill="url(#paint0_linear_348_1054)"/>
<path d="M67.6626 73.4286L83.5821 29.6901L101.095 36.0642C104.312 37.2353 106.823 38.6891 108.625 40.4255C110.428 42.162 111.562 44.0743 112.027 46.1624C112.498 48.2363 112.334 50.3696 111.536 52.5622C110.914 54.2707 110.026 55.6484 108.871 56.6953C107.721 57.728 106.398 58.4395 104.901 58.83C103.424 59.2115 101.862 59.2958 100.214 59.083L100.059 59.5101C101.698 60.1876 103.086 61.2249 104.223 62.622C105.373 64.0243 106.119 65.6743 106.46 67.5721C106.806 69.4557 106.588 71.4724 105.806 73.6223C104.961 75.9431 103.63 77.8048 101.814 79.2075C100.017 80.6011 97.8087 81.4179 95.1899 81.6579C92.5711 81.8979 89.6244 81.422 86.3497 80.2301L67.6626 73.4286ZM79.6618 69.2341L87.2007 71.978C89.7777 72.916 91.8359 73.1088 93.3752 72.5566C94.9196 71.99 95.9924 70.881 96.5936 69.2294C97.0341 68.0192 97.1308 66.8451 96.8839 65.7072C96.637 64.5693 96.0684 63.54 95.1781 62.6193C94.302 61.7039 93.1236 60.9767 91.6428 60.4378L83.8904 57.6161L79.6618 69.2341ZM86.1679 51.3586L93.0234 53.8538C94.2906 54.315 95.4957 54.5037 96.6387 54.4199C97.8012 54.327 98.8175 53.9713 99.6875 53.3528C100.572 52.7395 101.224 51.8562 101.644 50.703C102.219 49.1226 102.12 47.6436 101.348 46.266C100.59 44.8937 99.1855 43.8344 97.1353 43.0881L90.1089 40.5308L86.1679 51.3586Z" fill="url(#paint1_linear_348_1054)"/>
<path d="M72.0993 103.345L62.3445 101.361C62.423 100.063 62.2872 98.868 61.9372 97.7764C61.5902 96.6698 61.057 95.6801 60.3378 94.8071C59.6186 93.9341 58.7325 93.1973 57.6796 92.5966C56.6415 91.9989 55.4692 91.5672 54.1626 91.3015C51.8019 90.8213 49.6262 90.9895 47.6356 91.8061C45.6481 92.6079 43.9452 94.0242 42.5272 96.0551C41.1121 98.071 40.083 100.66 39.4398 103.823C38.7784 107.074 38.7053 109.905 39.2205 112.313C39.7504 114.725 40.7767 116.673 42.2992 118.158C43.8217 119.642 45.7336 120.619 48.035 121.087C49.3267 121.35 50.5567 121.422 51.7249 121.304C52.9079 121.189 53.9964 120.892 54.9904 120.414C55.9875 119.921 56.8647 119.257 57.6222 118.421C58.3945 117.589 59.0159 116.587 59.4862 115.414L69.232 117.443C68.5538 119.485 67.5121 121.376 66.1068 123.116C64.7195 124.844 63.0239 126.3 61.0203 127.485C59.0345 128.658 56.7855 129.453 54.2732 129.87C51.7788 130.275 49.0692 130.18 46.1442 129.585C42.076 128.758 38.6256 127.097 35.793 124.604C32.9752 122.113 30.9932 118.935 29.8469 115.068C28.7155 111.205 28.6541 106.793 29.6627 101.834C30.6743 96.8603 32.4704 92.819 35.0508 89.7104C37.6313 86.6017 40.7108 84.4604 44.2893 83.2864C47.8708 82.0976 51.666 81.9109 55.6748 82.7262C58.3177 83.2638 60.692 84.1332 62.7978 85.3346C64.9185 86.539 66.7099 88.0321 68.172 89.8138C69.6371 91.5807 70.7107 93.6003 71.3927 95.8727C72.0895 98.1482 72.325 100.639 72.0993 103.345Z" fill="url(#paint2_linear_348_1054)"/>
</g>
<defs>
<filter id="filter0_d_348_1054" x="0.962891" y="1.98633" width="120.362" height="139.625" filterUnits="userSpaceOnUse" color-interpolation-filters="sRGB">
<feFlood flood-opacity="0" result="BackgroundImageFix"/>
<feColorMatrix in="SourceAlpha" type="matrix" values="0 0 0 0 0 0 0 0 0 0 0 0 0 0 0 0 0 0 127 0" result="hardAlpha"/>
<feOffset dy="4"/>
<feGaussianBlur stdDeviation="2"/>
<feComposite in2="hardAlpha" operator="out"/>
<feColorMatrix type="matrix" values="0 0 0 0 0 0 0 0 0 0 0 0 0 0 0 0 0 0 0.25 0"/>
<feBlend mode="normal" in2="BackgroundImageFix" result="effect1_dropShadow_348_1054"/>
<feBlend mode="normal" in="SourceGraphic" in2="effect1_dropShadow_348_1054" result="shape"/>
</filter>
<linearGradient id="paint0_linear_348_1054" x1="25.1839" y1="9.15815" x2="43.9553" y2="54.6279" gradientUnits="userSpaceOnUse">
<stop stop-color="#FFC278"/>
<stop offset="1" stop-color="#997448"/>
</linearGradient>
<linearGradient id="paint1_linear_348_1054" x1="100.824" y1="33.3534" x2="83.2033" y2="81.7645" gradientUnits="userSpaceOnUse">
<stop stop-color="#FFC278"/>
<stop offset="1" stop-color="#997448"/>
</linearGradient>
<linearGradient id="paint2_linear_348_1054" x1="55.8356" y1="79.8831" x2="45.0082" y2="133.118" gradientUnits="userSpaceOnUse">
<stop stop-color="#FFC278"/>
<stop offset="1" stop-color="#997448"/>
</linearGradient>
</defs>
</svg>
