<svg width="114" height="127" viewBox="0 0 114 127" fill="none" xmlns="http://www.w3.org/2000/svg">
<g filter="url(#filter0_d_348_1046)">
<path d="M25.6895 27L22.7207 16.0909H25.7818L27.4721 23.4205H27.5716L29.3329 16.0909H32.3372L34.127 23.3778H34.2193L35.8812 16.0909H38.9352L35.9735 27H32.7704L30.8954 20.1392H30.7605L28.8855 27H25.6895ZM45.2473 27.2131C44.1252 27.2131 43.1593 26.9858 42.3496 26.5312C41.5447 26.072 40.9244 25.4233 40.4888 24.5852C40.0532 23.7424 39.8354 22.7457 39.8354 21.5952C39.8354 20.473 40.0532 19.4882 40.4888 18.6406C40.9244 17.7931 41.5376 17.1326 42.3283 16.6591C43.1238 16.1856 44.0565 15.9489 45.1266 15.9489C45.8463 15.9489 46.5163 16.0649 47.1365 16.2969C47.7615 16.5241 48.306 16.8674 48.7701 17.3267C49.2388 17.786 49.6034 18.3636 49.8638 19.0597C50.1242 19.7509 50.2544 20.5606 50.2544 21.4886V22.3196H41.0428V20.4446H47.4064C47.4064 20.009 47.3117 19.6231 47.1223 19.2869C46.9329 18.9508 46.6702 18.688 46.334 18.4986C46.0025 18.3045 45.6167 18.2074 45.1763 18.2074C44.717 18.2074 44.3098 18.3139 43.9547 18.527C43.6043 18.7353 43.3297 19.017 43.1309 19.3722C42.932 19.7225 42.8302 20.1132 42.8255 20.544V22.3267C42.8255 22.8665 42.9249 23.3329 43.1238 23.7259C43.3274 24.1188 43.6138 24.4219 43.9831 24.6349C44.3525 24.848 44.7904 24.9545 45.2971 24.9545C45.6332 24.9545 45.941 24.9072 46.2203 24.8125C46.4997 24.7178 46.7388 24.5758 46.9377 24.3864C47.1365 24.197 47.2881 23.965 47.3922 23.6903L50.1905 23.875C50.0485 24.5473 49.7573 25.1345 49.3169 25.6364C48.8813 26.1335 48.3179 26.5218 47.6266 26.8011C46.94 27.0758 46.147 27.2131 45.2473 27.2131ZM55.2544 12.4545V27H52.2289V12.4545H55.2544ZM62.6071 27.2131C61.4896 27.2131 60.5285 26.9763 59.7235 26.5028C58.9234 26.0246 58.3078 25.3617 57.877 24.5142C57.4508 23.6667 57.2377 22.6913 57.2377 21.5881C57.2377 20.4706 57.4532 19.4905 57.8841 18.6477C58.3197 17.8002 58.9376 17.1397 59.7377 16.6662C60.5379 16.188 61.4896 15.9489 62.5929 15.9489C63.5446 15.9489 64.3779 16.1217 65.0929 16.4673C65.8078 16.813 66.3736 17.2983 66.7903 17.9233C67.207 18.5483 67.4366 19.2822 67.4792 20.125H64.6241C64.5436 19.5805 64.3306 19.1425 63.9849 18.8111C63.644 18.4749 63.1966 18.3068 62.6426 18.3068C62.1738 18.3068 61.7643 18.4347 61.4139 18.6903C61.0682 18.9413 60.7984 19.3082 60.6042 19.7912C60.4101 20.2741 60.313 20.8589 60.313 21.5455C60.313 22.2415 60.4077 22.8333 60.5971 23.321C60.7913 23.8087 61.0635 24.1804 61.4139 24.4361C61.7643 24.6918 62.1738 24.8196 62.6426 24.8196C62.9882 24.8196 63.2984 24.7486 63.573 24.6065C63.8523 24.4645 64.082 24.2585 64.2619 23.9886C64.4466 23.714 64.5673 23.3849 64.6241 23.0014H67.4792C67.4319 23.8348 67.2046 24.5687 66.7974 25.2031C66.3949 25.8329 65.8386 26.3253 65.1284 26.6804C64.4181 27.0355 63.5777 27.2131 62.6071 27.2131ZM74.3453 27.2131C73.2421 27.2131 72.2881 26.9787 71.4831 26.5099C70.6829 26.0365 70.065 25.3783 69.6294 24.5355C69.1938 23.688 68.976 22.7055 68.976 21.5881C68.976 20.4612 69.1938 19.4763 69.6294 18.6335C70.065 17.786 70.6829 17.1278 71.4831 16.6591C72.2881 16.1856 73.2421 15.9489 74.3453 15.9489C75.4486 15.9489 76.4003 16.1856 77.2005 16.6591C78.0054 17.1278 78.6257 17.786 79.0613 18.6335C79.4969 19.4763 79.7147 20.4612 79.7147 21.5881C79.7147 22.7055 79.4969 23.688 79.0613 24.5355C78.6257 25.3783 78.0054 26.0365 77.2005 26.5099C76.4003 26.9787 75.4486 27.2131 74.3453 27.2131ZM74.3596 24.8693C74.8614 24.8693 75.2805 24.7273 75.6167 24.4432C75.9528 24.1544 76.2061 23.7614 76.3766 23.2642C76.5518 22.767 76.6394 22.2012 76.6394 21.5668C76.6394 20.9323 76.5518 20.3665 76.3766 19.8693C76.2061 19.3722 75.9528 18.9792 75.6167 18.6903C75.2805 18.4015 74.8614 18.2571 74.3596 18.2571C73.8529 18.2571 73.4268 18.4015 73.0811 18.6903C72.7402 18.9792 72.4822 19.3722 72.307 19.8693C72.1365 20.3665 72.0513 20.9323 72.0513 21.5668C72.0513 22.2012 72.1365 22.767 72.307 23.2642C72.4822 23.7614 72.7402 24.1544 73.0811 24.4432C73.4268 24.7273 73.8529 24.8693 74.3596 24.8693ZM81.682 27V16.0909H84.5655V18.0156H84.6934C84.9206 17.3764 85.2994 16.8722 85.8297 16.5028C86.36 16.1335 86.9945 15.9489 87.7331 15.9489C88.4812 15.9489 89.1181 16.1359 89.6436 16.5099C90.1692 16.8793 90.5196 17.3812 90.6948 18.0156H90.8084C91.031 17.3906 91.4334 16.8911 92.0158 16.517C92.6029 16.1383 93.2966 15.9489 94.0968 15.9489C95.1148 15.9489 95.941 16.2732 96.5755 16.9219C97.2147 17.5658 97.5343 18.4796 97.5343 19.6634V27H94.5158V20.2599C94.5158 19.6539 94.3548 19.1993 94.0328 18.8963C93.7109 18.5933 93.3084 18.4418 92.8255 18.4418C92.2762 18.4418 91.8477 18.617 91.54 18.9673C91.2322 19.313 91.0783 19.7699 91.0783 20.3381V27H88.1451V20.196C88.1451 19.661 87.9912 19.2348 87.6834 18.9176C87.3804 18.6004 86.9803 18.4418 86.4831 18.4418C86.147 18.4418 85.8439 18.527 85.574 18.6974C85.3089 18.8632 85.0982 19.0975 84.9419 19.4006C84.7857 19.6989 84.7076 20.0492 84.7076 20.4517V27H81.682ZM104.896 27.2131C103.774 27.2131 102.808 26.9858 101.998 26.5312C101.193 26.072 100.573 25.4233 100.137 24.5852C99.7016 23.7424 99.4838 22.7457 99.4838 21.5952C99.4838 20.473 99.7016 19.4882 100.137 18.6406C100.573 17.7931 101.186 17.1326 101.977 16.6591C102.772 16.1856 103.705 15.9489 104.775 15.9489C105.495 15.9489 106.165 16.0649 106.785 16.2969C107.41 16.5241 107.954 16.8674 108.419 17.3267C108.887 17.786 109.252 18.3636 109.512 19.0597C109.773 19.7509 109.903 20.5606 109.903 21.4886V22.3196H100.691V20.4446H107.055C107.055 20.009 106.96 19.6231 106.771 19.2869C106.581 18.9508 106.319 18.688 105.982 18.4986C105.651 18.3045 105.265 18.2074 104.825 18.2074C104.365 18.2074 103.958 18.3139 103.603 18.527C103.253 18.7353 102.978 19.017 102.779 19.3722C102.58 19.7225 102.479 20.1132 102.474 20.544V22.3267C102.474 22.8665 102.573 23.3329 102.772 23.7259C102.976 24.1188 103.262 24.4219 103.632 24.6349C104.001 24.848 104.439 24.9545 104.945 24.9545C105.282 24.9545 105.589 24.9072 105.869 24.8125C106.148 24.7178 106.387 24.5758 106.586 24.3864C106.785 24.197 106.936 23.965 107.041 23.6903L109.839 23.875C109.697 24.5473 109.406 25.1345 108.965 25.6364C108.53 26.1335 107.966 26.5218 107.275 26.8011C106.588 27.0758 105.795 27.2131 104.896 27.2131Z" fill="url(#paint0_linear_348_1046)"/>
<path d="M67.44 111.321L65.7781 111.423C65.7496 111.281 65.6886 111.153 65.5948 111.04C65.5011 110.923 65.3775 110.831 65.2241 110.763C65.0735 110.692 64.8931 110.656 64.6829 110.656C64.4016 110.656 64.1644 110.716 63.9712 110.835C63.7781 110.952 63.6815 111.108 63.6815 111.304C63.6815 111.46 63.744 111.592 63.869 111.7C63.994 111.808 64.2085 111.895 64.5124 111.96L65.6971 112.199C66.3335 112.33 66.8079 112.54 67.1204 112.83C67.4329 113.119 67.5891 113.5 67.5891 113.972C67.5891 114.401 67.4627 114.777 67.2099 115.101C66.9599 115.425 66.6161 115.678 66.1786 115.859C65.744 116.038 65.2425 116.128 64.6744 116.128C63.8079 116.128 63.1175 115.947 62.6033 115.587C62.092 115.223 61.7923 114.729 61.7042 114.104L63.4897 114.01C63.5437 114.274 63.6744 114.476 63.8817 114.615C64.0891 114.751 64.3548 114.82 64.6786 114.82C64.9968 114.82 65.2525 114.759 65.4457 114.636C65.6417 114.511 65.7411 114.351 65.744 114.155C65.7411 113.99 65.6715 113.855 65.5352 113.75C65.3988 113.642 65.1886 113.56 64.9045 113.503L63.771 113.277C63.1317 113.149 62.6559 112.928 62.3434 112.612C62.0337 112.297 61.8789 111.895 61.8789 111.406C61.8789 110.986 61.9925 110.624 62.2198 110.32C62.4499 110.016 62.7724 109.781 63.1871 109.616C63.6048 109.452 64.0934 109.369 64.6531 109.369C65.4798 109.369 66.1303 109.544 66.6048 109.893C67.082 110.243 67.3604 110.719 67.44 111.321ZM71.6896 116.128C71.0277 116.128 70.4553 115.987 69.9723 115.706C69.4922 115.422 69.1214 115.027 68.8601 114.521C68.5987 114.013 68.468 113.423 68.468 112.753C68.468 112.077 68.5987 111.486 68.8601 110.98C69.1214 110.472 69.4922 110.077 69.9723 109.795C70.4553 109.511 71.0277 109.369 71.6896 109.369C72.3516 109.369 72.9226 109.511 73.4027 109.795C73.8857 110.077 74.2578 110.472 74.5192 110.98C74.7805 111.486 74.9112 112.077 74.9112 112.753C74.9112 113.423 74.7805 114.013 74.5192 114.521C74.2578 115.027 73.8857 115.422 73.4027 115.706C72.9226 115.987 72.3516 116.128 71.6896 116.128ZM71.6982 114.722C71.9993 114.722 72.2507 114.636 72.4524 114.466C72.6541 114.293 72.8061 114.057 72.9084 113.759C73.0135 113.46 73.0661 113.121 73.0661 112.74C73.0661 112.359 73.0135 112.02 72.9084 111.722C72.8061 111.423 72.6541 111.187 72.4524 111.014C72.2507 110.841 71.9993 110.754 71.6982 110.754C71.3942 110.754 71.1385 110.841 70.9311 111.014C70.7266 111.187 70.5717 111.423 70.4666 111.722C70.3643 112.02 70.3132 112.359 70.3132 112.74C70.3132 113.121 70.3643 113.46 70.4666 113.759C70.5717 114.057 70.7266 114.293 70.9311 114.466C71.1385 114.636 71.3942 114.722 71.6982 114.722ZM76.0916 116V109.455H77.8516V110.597H77.9197C78.0391 110.19 78.2393 109.884 78.5206 109.676C78.8018 109.466 79.1257 109.361 79.4922 109.361C79.5831 109.361 79.6811 109.366 79.7862 109.378C79.8913 109.389 79.9837 109.405 80.0632 109.425V111.036C79.978 111.01 79.8601 110.987 79.7095 110.967C79.5589 110.947 79.4212 110.938 79.2962 110.938C79.0291 110.938 78.7905 110.996 78.5803 111.112C78.3729 111.226 78.2081 111.385 78.0859 111.589C77.9666 111.794 77.907 112.03 77.907 112.297V116H76.0916ZM81.0018 116V109.455H82.7617V110.597H82.8299C82.9492 110.19 83.1495 109.884 83.4308 109.676C83.712 109.466 84.0359 109.361 84.4023 109.361C84.4933 109.361 84.5913 109.366 84.6964 109.378C84.8015 109.389 84.8938 109.405 84.9734 109.425V111.036C84.8881 111.01 84.7702 110.987 84.6197 110.967C84.4691 110.947 84.3313 110.938 84.2063 110.938C83.9393 110.938 83.7006 110.996 83.4904 111.112C83.283 111.226 83.1183 111.385 82.9961 111.589C82.8768 111.794 82.8171 112.03 82.8171 112.297V116H81.0018ZM87.2319 118.455C87.0018 118.455 86.7859 118.436 86.5842 118.399C86.3853 118.365 86.2205 118.321 86.0898 118.267L86.4989 116.912C86.712 116.977 86.9038 117.013 87.0742 117.018C87.2475 117.024 87.3967 116.984 87.5217 116.899C87.6495 116.814 87.7532 116.669 87.8327 116.464L87.9393 116.188L85.5913 109.455H87.5004L88.8555 114.261H88.9237L90.2915 109.455H92.2134L89.6694 116.707C89.5472 117.06 89.381 117.366 89.1708 117.628C88.9634 117.892 88.7006 118.095 88.3825 118.237C88.0643 118.382 87.6808 118.455 87.2319 118.455ZM93.7933 116.111C93.5121 116.111 93.2706 116.011 93.0689 115.812C92.87 115.611 92.7706 115.369 92.7706 115.088C92.7706 114.81 92.87 114.571 93.0689 114.372C93.2706 114.173 93.5121 114.074 93.7933 114.074C94.0661 114.074 94.3047 114.173 94.5092 114.372C94.7138 114.571 94.8161 114.81 94.8161 115.088C94.8161 115.276 94.7678 115.447 94.6712 115.604C94.5774 115.757 94.4538 115.881 94.3004 115.974C94.147 116.065 93.978 116.111 93.7933 116.111ZM97.3675 116.111C97.0863 116.111 96.8448 116.011 96.6431 115.812C96.4442 115.611 96.3448 115.369 96.3448 115.088C96.3448 114.81 96.4442 114.571 96.6431 114.372C96.8448 114.173 97.0863 114.074 97.3675 114.074C97.6403 114.074 97.8789 114.173 98.0835 114.372C98.288 114.571 98.3903 114.81 98.3903 115.088C98.3903 115.276 98.342 115.447 98.2454 115.604C98.1516 115.757 98.0281 115.881 97.8746 115.974C97.7212 116.065 97.5522 116.111 97.3675 116.111ZM100.942 116.111C100.661 116.111 100.419 116.011 100.217 115.812C100.018 115.611 99.919 115.369 99.919 115.088C99.919 114.81 100.018 114.571 100.217 114.372C100.419 114.173 100.661 114.074 100.942 114.074C101.214 114.074 101.453 114.173 101.658 114.372C101.862 114.571 101.964 114.81 101.964 115.088C101.964 115.276 101.916 115.447 101.82 115.604C101.726 115.757 101.602 115.881 101.449 115.974C101.295 116.065 101.126 116.111 100.942 116.111Z" fill="url(#paint1_linear_348_1046)"/>
<path d="M14.0455 82V35.4545H23.8864V54.6591H43.8636V35.4545H53.6818V82H43.8636V62.7727H23.8864V82H14.0455ZM61.6136 82V47.0909H71.2955V82H61.6136ZM66.4773 42.5909C65.0379 42.5909 63.803 42.1136 62.7727 41.1591C61.7576 40.1894 61.25 39.0303 61.25 37.6818C61.25 36.3485 61.7576 35.2045 62.7727 34.25C63.803 33.2803 65.0379 32.7955 66.4773 32.7955C67.9167 32.7955 69.1439 33.2803 70.1591 34.25C71.1894 35.2045 71.7046 36.3485 71.7046 37.6818C71.7046 39.0303 71.1894 40.1894 70.1591 41.1591C69.1439 42.1136 67.9167 42.5909 66.4773 42.5909ZM90.6193 35.4545L89.733 68.0455H81.4148L80.5057 35.4545H90.6193ZM85.5739 82.5909C84.0739 82.5909 82.786 82.0606 81.7102 81C80.6345 79.9242 80.1042 78.6364 80.1193 77.1364C80.1042 75.6515 80.6345 74.3788 81.7102 73.3182C82.786 72.2576 84.0739 71.7273 85.5739 71.7273C87.0133 71.7273 88.2784 72.2576 89.3693 73.3182C90.4602 74.3788 91.0133 75.6515 91.0284 77.1364C91.0133 78.1364 90.7481 79.053 90.233 79.8864C89.733 80.7046 89.0739 81.3636 88.2557 81.8636C87.4375 82.3485 86.5436 82.5909 85.5739 82.5909Z" fill="url(#paint2_linear_348_1046)"/>
<path d="M9.60796 92.2727V94.0909H4.35227V92.2727H9.60796ZM5.54545 90.1818H7.96591V98.3182C7.96591 98.5417 8 98.7159 8.06818 98.8409C8.13636 98.9621 8.23106 99.0474 8.35227 99.0966C8.47727 99.1458 8.62121 99.1705 8.78409 99.1705C8.89773 99.1705 9.01136 99.161 9.125 99.142C9.23864 99.1193 9.32576 99.1023 9.38636 99.0909L9.76705 100.892C9.64583 100.93 9.47538 100.973 9.25568 101.023C9.03599 101.076 8.76894 101.108 8.45455 101.119C7.87121 101.142 7.35985 101.064 6.92046 100.886C6.48485 100.708 6.14583 100.432 5.90341 100.057C5.66099 99.6818 5.54167 99.2083 5.54545 98.6364V90.1818ZM13.7926 95.9545V101H11.3722V89.3636H13.7244V93.8125H13.8267C14.0237 93.2973 14.3419 92.8939 14.7813 92.6023C15.2206 92.3068 15.7718 92.1591 16.4347 92.1591C17.0407 92.1591 17.5691 92.2917 18.0199 92.5568C18.4744 92.8182 18.8267 93.1951 19.0767 93.6875C19.3305 94.1761 19.4555 94.7614 19.4517 95.4432V101H17.0313V95.875C17.035 95.3371 16.8987 94.9186 16.6222 94.6193C16.3494 94.3201 15.9669 94.1705 15.4744 94.1705C15.1449 94.1705 14.8532 94.2405 14.5994 94.3807C14.3494 94.5208 14.1525 94.7254 14.0085 94.9943C13.8684 95.2595 13.7964 95.5795 13.7926 95.9545ZM23.8452 101.165C23.2884 101.165 22.7921 101.068 22.3565 100.875C21.9209 100.678 21.5762 100.388 21.3224 100.006C21.0724 99.6193 20.9474 99.1383 20.9474 98.5625C20.9474 98.0777 21.0365 97.6705 21.2145 97.3409C21.3925 97.0114 21.6349 96.7462 21.9418 96.5455C22.2486 96.3447 22.5971 96.1932 22.9872 96.0909C23.3812 95.9886 23.794 95.9167 24.2259 95.875C24.7334 95.822 25.1425 95.7727 25.4531 95.7273C25.7637 95.678 25.9891 95.6061 26.1293 95.5114C26.2694 95.4167 26.3395 95.2765 26.3395 95.0909V95.0568C26.3395 94.697 26.2259 94.4186 25.9986 94.2216C25.7751 94.0246 25.4569 93.9261 25.044 93.9261C24.6084 93.9261 24.2618 94.0227 24.0043 94.2159C23.7467 94.4053 23.5762 94.6439 23.4929 94.9318L21.2543 94.75C21.3679 94.2197 21.5914 93.7614 21.9247 93.375C22.2581 92.9848 22.688 92.6856 23.2145 92.4773C23.7448 92.2652 24.3584 92.1591 25.0554 92.1591C25.5402 92.1591 26.0043 92.2159 26.4474 92.3295C26.8944 92.4432 27.2902 92.6193 27.6349 92.858C27.9834 93.0966 28.2581 93.4034 28.4588 93.7784C28.6596 94.1496 28.7599 94.5947 28.7599 95.1136V101H26.4645V99.7898H26.3963C26.2562 100.063 26.0687 100.303 25.8338 100.511C25.599 100.716 25.3168 100.877 24.9872 100.994C24.6577 101.108 24.277 101.165 23.8452 101.165ZM24.5384 99.4943C24.8944 99.4943 25.2088 99.4242 25.4815 99.2841C25.7543 99.1402 25.9683 98.947 26.1236 98.7045C26.2789 98.4621 26.3565 98.1875 26.3565 97.8807V96.9545C26.2808 97.0038 26.1766 97.0492 26.044 97.0909C25.9152 97.1288 25.7694 97.1648 25.6065 97.1989C25.4437 97.2292 25.2808 97.2576 25.1179 97.2841C24.955 97.3068 24.8073 97.3277 24.6747 97.3466C24.3906 97.3883 24.1425 97.4545 23.9304 97.5455C23.7183 97.6364 23.5535 97.7595 23.4361 97.9148C23.3187 98.0663 23.2599 98.2557 23.2599 98.483C23.2599 98.8125 23.3793 99.0644 23.6179 99.2386C23.8603 99.4091 24.1671 99.4943 24.5384 99.4943ZM33.0582 95.9545V101H30.6378V92.2727H32.9446V93.8125H33.0469C33.2401 93.3049 33.5639 92.9034 34.0185 92.608C34.473 92.3087 35.0242 92.1591 35.6719 92.1591C36.2779 92.1591 36.8063 92.2917 37.2571 92.5568C37.7079 92.822 38.0582 93.2008 38.3082 93.6932C38.5582 94.1818 38.6832 94.7652 38.6832 95.4432V101H36.2628V95.875C36.2666 95.3409 36.1302 94.9242 35.8537 94.625C35.5772 94.322 35.1965 94.1705 34.7117 94.1705C34.3859 94.1705 34.098 94.2405 33.848 94.3807C33.6018 94.5208 33.4086 94.7254 33.2685 94.9943C33.1321 95.2595 33.062 95.5795 33.0582 95.9545ZM42.7841 98.4886L42.7898 95.5852H43.1421L45.9375 92.2727H48.7159L44.9602 96.6591H44.3864L42.7841 98.4886ZM40.5909 101V89.3636H43.0114V101H40.5909ZM46.0455 101L43.4773 97.1989L45.0909 95.4886L48.8807 101H46.0455ZM55.1009 104.273C54.794 104.273 54.5062 104.248 54.2372 104.199C53.9721 104.153 53.7524 104.095 53.5781 104.023L54.1236 102.216C54.4077 102.303 54.6634 102.35 54.8906 102.358C55.1217 102.366 55.3206 102.313 55.4872 102.199C55.6577 102.085 55.7959 101.892 55.902 101.619L56.044 101.25L52.9134 92.2727H55.4588L57.2656 98.6818H57.3565L59.1804 92.2727H61.7429L58.3509 101.943C58.188 102.413 57.9664 102.822 57.6861 103.17C57.4096 103.523 57.0592 103.794 56.6349 103.983C56.2107 104.176 55.6993 104.273 55.1009 104.273ZM66.6435 101.17C65.7609 101.17 64.9976 100.983 64.3537 100.608C63.7135 100.229 63.2192 99.7027 62.8707 99.0284C62.5223 98.3504 62.348 97.5644 62.348 96.6705C62.348 95.7689 62.5223 94.9811 62.8707 94.3068C63.2192 93.6288 63.7135 93.1023 64.3537 92.7273C64.9976 92.3485 65.7609 92.1591 66.6435 92.1591C67.526 92.1591 68.2874 92.3485 68.9276 92.7273C69.5715 93.1023 70.0677 93.6288 70.4162 94.3068C70.7647 94.9811 70.9389 95.7689 70.9389 96.6705C70.9389 97.5644 70.7647 98.3504 70.4162 99.0284C70.0677 99.7027 69.5715 100.229 68.9276 100.608C68.2874 100.983 67.526 101.17 66.6435 101.17ZM66.6548 99.2955C67.0564 99.2955 67.3916 99.1818 67.6605 98.9545C67.9295 98.7235 68.1321 98.4091 68.2685 98.0114C68.4086 97.6136 68.4787 97.161 68.4787 96.6534C68.4787 96.1458 68.4086 95.6932 68.2685 95.2955C68.1321 94.8977 67.9295 94.5833 67.6605 94.3523C67.3916 94.1212 67.0564 94.0057 66.6548 94.0057C66.2495 94.0057 65.9086 94.1212 65.6321 94.3523C65.3594 94.5833 65.1529 94.8977 65.0128 95.2955C64.8764 95.6932 64.8082 96.1458 64.8082 96.6534C64.8082 97.161 64.8764 97.6136 65.0128 98.0114C65.1529 98.4091 65.3594 98.7235 65.6321 98.9545C65.9086 99.1818 66.2495 99.2955 66.6548 99.2955ZM78.1094 97.2841V92.2727H80.5298V101H78.206V99.4148H78.1151C77.9181 99.9261 77.5904 100.337 77.1321 100.648C76.6776 100.958 76.1226 101.114 75.4673 101.114C74.884 101.114 74.3707 100.981 73.9276 100.716C73.4844 100.451 73.1378 100.074 72.8878 99.5852C72.6416 99.0966 72.5166 98.5114 72.5128 97.8295V92.2727H74.9332V97.3977C74.937 97.9129 75.0753 98.3201 75.348 98.6193C75.6207 98.9186 75.9863 99.0682 76.4446 99.0682C76.7363 99.0682 77.009 99.0019 77.2628 98.8693C77.5166 98.733 77.7211 98.5322 77.8764 98.267C78.0355 98.0019 78.1132 97.6742 78.1094 97.2841Z" fill="url(#paint3_linear_348_1046)"/>
<path d="M7.77131 12.4545V3.45455H9.56108V4.55398H9.64204C9.72159 4.37784 9.83665 4.19886 9.98721 4.01705C10.1406 3.83239 10.3395 3.67898 10.5838 3.55682C10.831 3.43182 11.1378 3.36932 11.5043 3.36932C11.9815 3.36932 12.4219 3.49432 12.8253 3.74432C13.2287 3.99148 13.5511 4.36506 13.7926 4.86506C14.0341 5.36222 14.1548 5.9858 14.1548 6.7358C14.1548 7.46591 14.0369 8.08239 13.8011 8.58523C13.5682 9.08523 13.25 9.46449 12.8466 9.72301C12.446 9.97869 11.9972 10.1065 11.5 10.1065C11.1477 10.1065 10.848 10.0483 10.6009 9.93182C10.3565 9.81534 10.1562 9.66904 10 9.4929C9.84375 9.31392 9.72443 9.13352 9.64204 8.95171H9.58665V12.4545H7.77131ZM9.54829 6.72727C9.54829 7.11648 9.60227 7.45597 9.71023 7.74574C9.81818 8.03551 9.97443 8.26136 10.179 8.4233C10.3835 8.58239 10.6321 8.66193 10.9247 8.66193C11.2202 8.66193 11.4702 8.58097 11.6747 8.41904C11.8793 8.25426 12.0341 8.02699 12.1392 7.73722C12.2472 7.4446 12.3011 7.10796 12.3011 6.72727C12.3011 6.34943 12.2486 6.01705 12.1435 5.73011C12.0384 5.44318 11.8835 5.21875 11.679 5.05682C11.4744 4.89489 11.223 4.81392 10.9247 4.81392C10.6293 4.81392 10.3793 4.89205 10.1747 5.0483C9.97301 5.20455 9.81818 5.42614 9.71023 5.71307C9.60227 6 9.54829 6.33807 9.54829 6.72727ZM17.1804 1.27273V10H15.3651V1.27273H17.1804ZM21.6175 10.1278C20.9442 10.1278 20.3647 9.99148 19.8789 9.71875C19.396 9.44318 19.0238 9.05398 18.7624 8.55114C18.5011 8.04546 18.3704 7.44744 18.3704 6.7571C18.3704 6.08381 18.5011 5.4929 18.7624 4.98438C19.0238 4.47585 19.3917 4.07955 19.8661 3.79545C20.3434 3.51136 20.9031 3.36932 21.5451 3.36932C21.9769 3.36932 22.3789 3.43892 22.7511 3.57813C23.1261 3.71449 23.4528 3.92045 23.7312 4.19602C24.0124 4.47159 24.2312 4.81818 24.3874 5.2358C24.5437 5.65057 24.6218 6.13636 24.6218 6.69318V7.19176H19.0948V6.06676H22.913C22.913 5.8054 22.8562 5.57386 22.7425 5.37216C22.6289 5.17045 22.4712 5.01278 22.2695 4.89915C22.0707 4.78267 21.8391 4.72443 21.5749 4.72443C21.2994 4.72443 21.055 4.78835 20.842 4.91619C20.6317 5.04119 20.467 5.21023 20.3477 5.4233C20.2283 5.63352 20.1673 5.8679 20.1644 6.12642V7.19602C20.1644 7.51989 20.2241 7.79972 20.3434 8.03551C20.4656 8.27131 20.6374 8.45313 20.859 8.58097C21.0806 8.70881 21.3434 8.77273 21.6474 8.77273C21.8491 8.77273 22.0337 8.74432 22.2013 8.6875C22.369 8.63068 22.5124 8.54546 22.6317 8.43182C22.7511 8.31818 22.842 8.17898 22.9045 8.01421L24.5835 8.125C24.4982 8.52841 24.3235 8.88068 24.0593 9.18182C23.7979 9.48011 23.4599 9.71307 23.0451 9.88068C22.6332 10.0455 22.1573 10.1278 21.6175 10.1278ZM27.6729 10.1236C27.2553 10.1236 26.8832 10.0511 26.5565 9.90625C26.2298 9.75852 25.9712 9.54119 25.7809 9.25426C25.5934 8.96449 25.4996 8.60369 25.4996 8.17188C25.4996 7.80824 25.5664 7.50284 25.6999 7.25568C25.8335 7.00852 26.0153 6.80966 26.2454 6.65909C26.4755 6.50852 26.7369 6.39489 27.0295 6.31818C27.3249 6.24148 27.6346 6.1875 27.9585 6.15625C28.3391 6.11648 28.646 6.07955 28.8789 6.04546C29.1119 6.00852 29.2809 5.95455 29.386 5.88352C29.4911 5.8125 29.5437 5.70739 29.5437 5.56818V5.54261C29.5437 5.27273 29.4585 5.06392 29.288 4.91619C29.1204 4.76847 28.8817 4.6946 28.5721 4.6946C28.2454 4.6946 27.9854 4.76705 27.7923 4.91193C27.5991 5.05398 27.4712 5.23296 27.4087 5.44886L25.7298 5.3125C25.815 4.91477 25.9826 4.57102 26.2326 4.28125C26.4826 3.98864 26.805 3.7642 27.1999 3.60795C27.5977 3.44886 28.0579 3.36932 28.5806 3.36932C28.9442 3.36932 29.2923 3.41193 29.6246 3.49716C29.9599 3.58239 30.2567 3.71449 30.5153 3.89347C30.7766 4.07244 30.9826 4.30256 31.1332 4.58381C31.2837 4.86222 31.359 5.19602 31.359 5.58523V10H29.6374V9.09233H29.5863C29.4812 9.29688 29.3406 9.47727 29.1644 9.63352C28.9883 9.78693 28.7766 9.90767 28.5295 9.99574C28.2823 10.081 27.9968 10.1236 27.6729 10.1236ZM28.1928 8.87074C28.4599 8.87074 28.6957 8.81818 28.9002 8.71307C29.1048 8.60511 29.2653 8.46023 29.3817 8.27841C29.4982 8.09659 29.5565 7.89063 29.5565 7.66051V6.96591C29.4996 7.00284 29.4215 7.03693 29.3221 7.06818C29.2255 7.09659 29.1161 7.12358 28.994 7.14915C28.8718 7.17188 28.7496 7.19318 28.6275 7.21307C28.5053 7.23011 28.3945 7.24574 28.2951 7.25994C28.082 7.29119 27.896 7.34091 27.7369 7.40909C27.5778 7.47727 27.4542 7.5696 27.3661 7.68608C27.2781 7.79972 27.234 7.94176 27.234 8.11222C27.234 8.35938 27.3235 8.5483 27.5025 8.67898C27.6843 8.80682 27.9144 8.87074 28.1928 8.87074ZM38.2134 5.32102L36.5515 5.4233C36.5231 5.28125 36.462 5.15341 36.3683 5.03977C36.2745 4.9233 36.1509 4.83097 35.9975 4.76278C35.8469 4.69176 35.6666 4.65625 35.4563 4.65625C35.1751 4.65625 34.9379 4.71591 34.7447 4.83523C34.5515 4.9517 34.4549 5.10795 34.4549 5.30398C34.4549 5.46023 34.5174 5.59233 34.6424 5.70028C34.7674 5.80824 34.9819 5.89489 35.2859 5.96023L36.4705 6.19886C37.1069 6.32955 37.5813 6.53977 37.8938 6.82955C38.2063 7.11932 38.3626 7.5 38.3626 7.97159C38.3626 8.40057 38.2362 8.77699 37.9833 9.10085C37.7333 9.42472 37.3896 9.67756 36.9521 9.85938C36.5174 10.0384 36.016 10.1278 35.4478 10.1278C34.5813 10.1278 33.891 9.94744 33.3768 9.58665C32.8654 9.22301 32.5657 8.72869 32.4776 8.10369L34.2631 8.00994C34.3171 8.27415 34.4478 8.47585 34.6552 8.61506C34.8626 8.75142 35.1282 8.8196 35.4521 8.8196C35.7702 8.8196 36.0259 8.75852 36.2191 8.63636C36.4151 8.51136 36.5146 8.35085 36.5174 8.15483C36.5146 7.99006 36.445 7.85511 36.3086 7.75C36.1722 7.64205 35.962 7.55966 35.6779 7.50284L34.5444 7.27699C33.9052 7.14915 33.4293 6.92756 33.1168 6.61222C32.8072 6.29688 32.6523 5.89489 32.6523 5.40625C32.6523 4.9858 32.766 4.62358 32.9933 4.3196C33.2234 4.01563 33.5458 3.78125 33.9606 3.61648C34.3782 3.4517 34.8668 3.36932 35.4265 3.36932C36.2532 3.36932 36.9038 3.54403 37.3782 3.89347C37.8555 4.2429 38.1339 4.71875 38.2134 5.32102ZM42.4886 10.1278C41.8153 10.1278 41.2358 9.99148 40.75 9.71875C40.267 9.44318 39.8949 9.05398 39.6335 8.55114C39.3722 8.04546 39.2415 7.44744 39.2415 6.7571C39.2415 6.08381 39.3722 5.4929 39.6335 4.98438C39.8949 4.47585 40.2628 4.07955 40.7372 3.79545C41.2145 3.51136 41.7742 3.36932 42.4162 3.36932C42.848 3.36932 43.25 3.43892 43.6222 3.57813C43.9972 3.71449 44.3239 3.92045 44.6023 4.19602C44.8835 4.47159 45.1023 4.81818 45.2585 5.2358C45.4148 5.65057 45.4929 6.13636 45.4929 6.69318V7.19176H39.9659V6.06676H43.7841C43.7841 5.8054 43.7273 5.57386 43.6136 5.37216C43.5 5.17045 43.3423 5.01278 43.1406 4.89915C42.9418 4.78267 42.7102 4.72443 42.446 4.72443C42.1705 4.72443 41.9261 4.78835 41.7131 4.91619C41.5028 5.04119 41.3381 5.21023 41.2188 5.4233C41.0994 5.63352 41.0384 5.8679 41.0355 6.12642V7.19602C41.0355 7.51989 41.0952 7.79972 41.2145 8.03551C41.3367 8.27131 41.5085 8.45313 41.7301 8.58097C41.9517 8.70881 42.2145 8.77273 42.5185 8.77273C42.7202 8.77273 42.9048 8.74432 43.0724 8.6875C43.2401 8.63068 43.3835 8.54546 43.5028 8.43182C43.6222 8.31818 43.7131 8.17898 43.7756 8.01421L45.4546 8.125C45.3693 8.52841 45.1946 8.88068 44.9304 9.18182C44.669 9.48011 44.331 9.71307 43.9162 9.88068C43.5043 10.0455 43.0284 10.1278 42.4886 10.1278Z" fill="url(#paint4_linear_348_1046)"/>
</g>
<defs>
<filter id="filter0_d_348_1046" x="0.352539" y="1.27344" width="113.551" height="125.182" filterUnits="userSpaceOnUse" color-interpolation-filters="sRGB">
<feFlood flood-opacity="0" result="BackgroundImageFix"/>
<feColorMatrix in="SourceAlpha" type="matrix" values="0 0 0 0 0 0 0 0 0 0 0 0 0 0 0 0 0 0 127 0" result="hardAlpha"/>
<feOffset dy="4"/>
<feGaussianBlur stdDeviation="2"/>
<feComposite in2="hardAlpha" operator="out"/>
<feColorMatrix type="matrix" values="0 0 0 0 0 0 0 0 0 0 0 0 0 0 0 0 0 0 0.25 0"/>
<feBlend mode="normal" in2="BackgroundImageFix" result="effect1_dropShadow_348_1046"/>
<feBlend mode="normal" in="SourceGraphic" in2="effect1_dropShadow_348_1046" result="shape"/>
</filter>
<linearGradient id="paint0_linear_348_1046" x1="66.5" y1="10" x2="66.5" y2="29" gradientUnits="userSpaceOnUse">
<stop stop-color="#FFC278"/>
<stop offset="1" stop-color="#997448"/>
</linearGradient>
<linearGradient id="paint1_linear_348_1046" x1="82" y1="101" x2="82" y2="123" gradientUnits="userSpaceOnUse">
<stop stop-color="#FFC278"/>
<stop offset="1" stop-color="#997448"/>
</linearGradient>
<linearGradient id="paint2_linear_348_1046" x1="53" y1="20" x2="53" y2="97" gradientUnits="userSpaceOnUse">
<stop stop-color="#FFC278"/>
<stop offset="1" stop-color="#997448"/>
</linearGradient>
<linearGradient id="paint3_linear_348_1046" x1="43.5" y1="86" x2="43.5" y2="104" gradientUnits="userSpaceOnUse">
<stop stop-color="#FFC278"/>
<stop offset="1" stop-color="#997448"/>
</linearGradient>
<linearGradient id="paint4_linear_348_1046" x1="26.5" y1="0" x2="26.5" y2="12" gradientUnits="userSpaceOnUse">
<stop stop-color="#FFC278"/>
<stop offset="1" stop-color="#997448"/>
</linearGradient>
</defs>
</svg>
