<svg width="88" height="109" viewBox="0 0 88 109" fill="none" xmlns="http://www.w3.org/2000/svg">
<g filter="url(#filter0_d_348_1060)">
<path d="M28.2102 2.45454V49H18.3693V11.7955H18.0966L7.4375 18.4773V9.75L18.9602 2.45454H28.2102ZM47.2727 49V41.9091L63.8409 26.5682C65.25 25.2045 66.4318 23.9773 67.3864 22.8864C68.3561 21.7955 69.0909 20.7273 69.5909 19.6818C70.0909 18.6212 70.3409 17.4773 70.3409 16.25C70.3409 14.8864 70.0303 13.7121 69.4091 12.7273C68.7879 11.7273 67.9394 10.9621 66.8636 10.4318C65.7879 9.88636 64.5682 9.61364 63.2045 9.61364C61.7803 9.61364 60.5379 9.90151 59.4773 10.4773C58.4167 11.053 57.5985 11.8788 57.0227 12.9545C56.447 14.0303 56.1591 15.3106 56.1591 16.7955H46.8182C46.8182 13.75 47.5076 11.1061 48.8864 8.86364C50.2651 6.62121 52.197 4.88636 54.6818 3.65909C57.1667 2.43182 60.0303 1.81818 63.2727 1.81818C66.6061 1.81818 69.5076 2.40909 71.9773 3.59091C74.4621 4.75757 76.3939 6.37879 77.7727 8.45454C79.1515 10.5303 79.8409 12.9091 79.8409 15.5909C79.8409 17.3485 79.4924 19.0833 78.7955 20.7955C78.1136 22.5076 76.8939 24.4091 75.1364 26.5C73.3788 28.5758 70.9015 31.0682 67.7045 33.9773L60.9091 40.6364V40.9545H80.4545V49H47.2727ZM22.196 100.636C18.8021 100.636 15.7794 100.053 13.1278 98.8864C10.4915 97.7045 8.40814 96.0833 6.87784 94.0227C5.36269 91.947 4.58239 89.553 4.53693 86.8409H14.446C14.5066 87.9773 14.8778 88.9773 15.5597 89.8409C16.2566 90.6894 17.1809 91.3485 18.3324 91.8182C19.4839 92.2879 20.7794 92.5227 22.2187 92.5227C23.7187 92.5227 25.0445 92.2576 26.196 91.7273C27.3475 91.197 28.2491 90.4621 28.9006 89.5227C29.5521 88.5833 29.8778 87.5 29.8778 86.2727C29.8778 85.0303 29.5294 83.9318 28.8324 82.9773C28.1506 82.0076 27.1657 81.25 25.8778 80.7045C24.6051 80.1591 23.09 79.8864 21.3324 79.8864H16.9915V72.6591H21.3324C22.8172 72.6591 24.1278 72.4015 25.2642 71.8864C26.4157 71.3712 27.3097 70.6591 27.946 69.75C28.5824 68.8258 28.9006 67.75 28.9006 66.5227C28.9006 65.3561 28.6203 64.3333 28.0597 63.4545C27.5142 62.5606 26.7415 61.8636 25.7415 61.3636C24.7566 60.8636 23.6051 60.6136 22.2869 60.6136C20.9536 60.6136 19.7339 60.8561 18.6278 61.3409C17.5218 61.8106 16.6354 62.4848 15.9687 63.3636C15.3021 64.2424 14.946 65.2727 14.9006 66.4545H5.46875C5.5142 63.7727 6.27936 61.4091 7.7642 59.3636C9.24905 57.3182 11.2491 55.7197 13.7642 54.5682C16.2945 53.4015 19.1506 52.8182 22.3324 52.8182C25.5445 52.8182 28.3551 53.4015 30.7642 54.5682C33.1733 55.7348 35.0445 57.3106 36.3778 59.2954C37.7263 61.2651 38.393 63.4773 38.3778 65.9318C38.393 68.5379 37.5824 70.7121 35.946 72.4545C34.3248 74.197 32.2112 75.303 29.6051 75.7727V76.1364C33.0294 76.5758 35.6354 77.7651 37.4233 79.7045C39.2263 81.6288 40.1203 84.0379 40.1051 86.9318C40.1203 89.5833 39.3551 91.9394 37.8097 94C36.2794 96.0606 34.1657 97.6818 31.4687 98.8636C28.7718 100.045 25.6809 100.636 22.196 100.636ZM46.4744 91.8182V84.0682L65.9062 53.4545H72.5881V64.1818H68.6335L56.3835 83.5682V83.9318H83.9972V91.8182H46.4744ZM68.8153 100V89.4545L68.9972 86.0227V53.4545H78.2244V100H68.8153Z" fill="url(#paint0_linear_348_1060)"/>
</g>
<defs>
<filter id="filter0_d_348_1060" x="0.537109" y="1.81836" width="87.46" height="106.818" filterUnits="userSpaceOnUse" color-interpolation-filters="sRGB">
<feFlood flood-opacity="0" result="BackgroundImageFix"/>
<feColorMatrix in="SourceAlpha" type="matrix" values="0 0 0 0 0 0 0 0 0 0 0 0 0 0 0 0 0 0 127 0" result="hardAlpha"/>
<feOffset dy="4"/>
<feGaussianBlur stdDeviation="2"/>
<feComposite in2="hardAlpha" operator="out"/>
<feColorMatrix type="matrix" values="0 0 0 0 0 0 0 0 0 0 0 0 0 0 0 0 0 0 0.25 0"/>
<feBlend mode="normal" in2="BackgroundImageFix" result="effect1_dropShadow_348_1060"/>
<feBlend mode="normal" in="SourceGraphic" in2="effect1_dropShadow_348_1060" result="shape"/>
</filter>
<linearGradient id="paint0_linear_348_1060" x1="44" y1="0" x2="44" y2="102" gradientUnits="userSpaceOnUse">
<stop stop-color="#FFC278"/>
<stop offset="1" stop-color="#997448"/>
</linearGradient>
</defs>
</svg>
